<?xml version="1.0" encoding="utf-8" ?>
<svg xmlns="http://www.w3.org/2000/svg" xmlns:xlink="http://www.w3.org/1999/xlink" width="1023" height="1023">
	<path fill="#0083D1" transform="scale(2 2)" d="M383.426 71.2457C386.307 71.6093 389.216 71.5798 392.092 71.966C414.25 74.9418 432.322 92.9986 434.416 115.499C436.122 133.828 429.42 143.901 418.643 156.906C416.85 152.759 413.878 149.029 411.274 145.355C392.552 120.786 374.734 105.021 347.875 89.773C358.189 77.5353 367.998 73.5898 383.426 71.2457Z"/>
	<path fill="#0083D1" transform="scale(2 2)" d="M124.003 71.2457C139.234 70.3714 155.859 76.7064 164.455 89.773C140.028 101.473 120.441 120.911 103.799 141.874C100.239 146.787 97.0041 151.901 93.5836 156.906C63.2805 125.236 80.8537 72.0971 124.003 71.2457Z"/>
	<path fill="#0083D1" transform="scale(2 2)" d="M256.163 85.4925C310.752 82.6453 368.357 117.673 398.251 162.083C447.091 234.64 430.878 337.244 360.837 390.425C357.464 392.986 353.56 395.317 350.523 398.249L350.269 398.498C353.479 401.348 370.867 419.37 372.232 421.607C377.561 430.338 366.3 440.747 357.834 435.397C352.12 431.785 336.541 414.49 331.44 409.049C306.903 421.085 280.509 425.816 253.313 425.778C227.04 425.782 201.369 418.38 177.721 407.354C173.901 412.156 156.685 431.334 152.11 434.694C142.897 441.459 131.762 429.177 137.361 420.045C140.748 414.521 154.433 401.554 159.299 396.571C156.847 394.271 153.829 392.337 151.17 390.257C70.4937 327.143 62.3188 208.638 136.158 135.348C167.996 103.746 211.173 85.3166 256.163 85.4925Z"/>
	<path fill="#FFFFFF" transform="scale(2 2)" d="M251.077 106.757C331.855 104.142 400.565 168.969 405.061 249.285C407.134 286.309 392.652 326.735 367.887 354.309C337.812 387.795 304.997 401.746 261.062 404.185C183.536 405.264 114.389 350.538 107.542 271.624C100.939 195.53 152.975 124.673 227.925 109.629C235.588 108.091 243.303 107.429 251.077 106.757Z"/>
	<path fill="#0083D1" transform="scale(2 2)" d="M198.592 210.733C200.891 210.472 211.886 210.342 214.477 210.523C225.464 211.29 228.022 227.384 215.169 231.753C211.144 232.008 201.682 232.185 197.954 231.437C186.44 229.126 186.782 211.948 198.592 210.733Z"/>
	<path fill="#0083D1" transform="scale(2 2)" d="M297.592 210.733C302.802 210.715 315.059 209.68 319.305 212.502C327.682 218.068 323.666 230.119 314.375 231.753C309.595 231.739 300.666 232.363 296.385 231.526C284.567 229.215 285.55 212.366 297.592 210.733Z"/>
	<path fill="#0083D1" transform="scale(2 2)" d="M191.34 284.853C198.374 285.061 200.057 290.497 203.658 295.511C227.952 329.334 282.918 329.752 308.292 296.628C311.412 292.554 313.591 286.373 319.166 285.169C324.755 283.963 330.843 287.656 331.83 293.401C332.837 299.266 327.943 304.798 324.749 309.211C296.38 345.259 242.803 353.675 205.425 326.44C197.832 320.908 182.056 306.005 180.806 296.713C179.879 289.827 184.887 285.424 191.34 284.853Z"/>
</svg>
